# xmcd CD database file generated by Grip 3.0.1
# 
# Track frame offsets:
#       177
#       16072
#       35760
# 
# Disc length: 706 seconds
# 
# Revision: 3
# Processed by: cddbd v1.4PL0 Copyright (c) Steve Scherf et al.
# Submitted via: Grip 3.0.1
# 
DISCID=1a02c003
DTITLE=Soulwax - Conversation Intercom [CD1)
DYEAR=2001
DGENRE=Other
TTITLE0=Conversation Intercom (Dave Bascombe Radio Mix)
TTITLE1=Caramel
TTITLE2=Tales Of A Dead Scene
EXTD=YEAR: 1998
EXTT0=
EXTT1=
EXTT2=
PLAYORDER=
